<?xml version="1.0" standalone="no"?>
<!DOCTYPE svg PUBLIC "-//W3C//DTD SVG 20010904//EN"
 "http://www.w3.org/TR/2001/REC-SVG-20010904/DTD/svg10.dtd">
<svg version="1.0" xmlns="http://www.w3.org/2000/svg"
 width="500.000000pt" height="500.000000pt" viewBox="0 0 500.000000 500.000000"
 preserveAspectRatio="xMidYMid meet">
<metadata>
Created by potrace 1.11, written by Peter Selinger 2001-2013
</metadata>
<g transform="translate(0.000000,500.000000) scale(0.100000,-0.100000)"
fill="#000000" stroke="none">
<path d="M2020 4960 c-401 -49 -778 -216 -1081 -478 -169 -146 -273 -260 -387
-424 -257 -369 -403 -758 -463 -1238 -6 -47 -11 -184 -11 -305 -1 -281 30
-515 101 -760 90 -314 258 -647 442 -877 375 -470 860 -747 1411 -807 118 -13
269 -14 363 -1 46 6 118 5 211 -2 461 -38 949 112 1339 411 388 297 692 753
839 1259 121 416 140 887 55 1328 -113 589 -447 1143 -894 1485 -252 194 -566
333 -875 390 -125 23 -169 24 -590 17 -25 0 -121 2 -215 5 -93 3 -204 2 -245
-3z m432 -1652 c9 -7 35 -55 59 -107 51 -115 50 -143 -11 -340 -22 -73 -39
-135 -37 -138 3 -2 70 79 151 181 280 354 361 414 451 335 45 -40 60 -93 47
-169 -15 -83 -75 -235 -159 -405 -41 -82 -68 -143 -60 -135 8 8 95 107 192
220 242 280 453 508 477 516 34 11 105 -76 128 -157 14 -46 -6 -86 -204 -401
-235 -376 -296 -512 -296 -660 0 -109 42 -135 124 -79 55 38 190 175 263 267
32 40 61 73 66 73 4 1 7 -23 7 -53 0 -49 -5 -62 -52 -133 -61 -92 -258 -293
-341 -347 -31 -20 -77 -44 -102 -53 -185 -63 -257 245 -130 556 35 86 104 221
161 318 25 43 55 94 66 113 l21 35 -25 -25 c-42 -43 -190 -211 -254 -290 -77
-94 -187 -255 -299 -435 -98 -158 -147 -222 -181 -237 -48 -22 -91 51 -109
182 -9 64 11 112 151 351 139 240 229 414 273 527 34 88 39 122 18 122 -21 0
-41 -26 -254 -330 -148 -211 -236 -349 -338 -530 -75 -135 -147 -256 -159
-269 -69 -76 -124 -34 -174 131 l-20 68 171 282 c174 290 230 406 282 584 56
194 55 194 -331 -62 -122 -81 -211 -134 -226 -134 -14 0 -33 9 -43 20 -17 19
-17 25 -1 157 10 75 24 149 31 164 19 37 176 179 198 179 29 0 20 -35 -24 -91
-23 -28 -38 -50 -33 -47 5 3 72 42 149 88 163 97 310 170 340 170 12 0 28 -6
37 -12z"/>
</g>
</svg>
